<?xml version="1.0" encoding="utf-8"?>
<svg viewBox="15.768 11.117 34 34" xmlns="http://www.w3.org/2000/svg">
  <g>
    <path d="m28 43c-3.798 0-6.888-3.088-6.888-6.887 0-2.02.865-3.895 2.388-5.205v-14.234c0-2.025 1.648-3.674 3.674-3.674h1.652c2.026 0 3.675 1.648 3.675 3.674v14.232c1.523 1.313 2.387 3.186 2.387 5.207 0 3.799-3.09 6.887-6.888 6.887m-.827-28.16c-1.013 0-1.836.824-1.836 1.837v15.13l-.366.277c-1.285.967-2.02 2.438-2.02 4.03 0 2.785 2.266 5.05 5.05 5.05 2.786 0 5.05-2.266 5.05-5.05 0-1.596-.737-3.066-2.02-4.03l-.366-.277v-15.13c0-1.013-.823-1.837-1.837-1.837h-1.656"/>
    <circle cx="28" cy="36.06" r="3.571"/>
    <path d="m28 34.99c-.761 0-1.378-.617-1.378-1.377v-7.756c0-.761.617-1.378 1.378-1.378s1.378.616 1.378 1.378v7.756c0 .76-.617 1.377-1.378 1.377"/>
    <path d="m46.805 26.864h-.943l.479-.479c.164-.164.164-.431 0-.595s-.43-.164-.594 0l-1.074 1.073h-2.518l1.207-1.206h1.145c.232 0 .42-.188.42-.42 0-.232-.188-.42-.42-.42h-.305l.363-.362c.164-.164.164-.431 0-.595s-.432-.164-.596 0l-.361.363v-.305c0-.232-.189-.42-.422-.42s-.42.188-.42.42v1.146l-1.207 1.206v-2.52l1.074-1.073c.164-.164.164-.43 0-.595-.164-.164-.432-.164-.596 0l-.479.479v-.943c0-.232-.188-.42-.42-.42s-.42.188-.42.42v.943l-.479-.479c-.164-.164-.432-.164-.596 0-.164.165-.164.431 0 .595l1.074 1.073v2.5l-1.188-1.188v-1.146c0-.232-.188-.42-.42-.42s-.42.188-.42.42v.305l-.377-.377c-.164-.165-.432-.165-.596 0-.164.164-.164.431 0 .595l.379.377h-.305c-.232 0-.422.188-.422.421 0 .232.189.42.422.42h1.145l1.205 1.206h-2.51l-1.074-1.073c-.164-.164-.43-.164-.594 0s-.164.431 0 .595l.479.479h-.971c-.232 0-.42.188-.42.42 0 .232.188.42.42.42h.971l-.479.479c-.164.164-.164.43 0 .594.082.083.189.123.297.123s.215-.041.297-.123l1.074-1.072h2.492l-1.188 1.187h-1.146c-.232 0-.42.188-.42.42s.188.42.42.42h.305l-.377.378c-.164.164-.164.431 0 .595.082.082.189.123.297.123s.215-.041.299-.123l.375-.377v.305c0 .232.189.42.422.42.23 0 .42-.188.42-.42v-1.145l1.188-1.188v2.491l-1.074 1.073c-.164.164-.164.431 0 .595.164.165.43.165.594 0l.48-.479v.97c0 .232.188.42.42.42s.42-.188.42-.42v-.97l.479.479c.082.083.189.123.297.123s.215-.042.297-.123c.164-.164.164-.431 0-.595l-1.072-1.073v-2.51l1.207 1.207v1.146c0 .231.188.42.42.42s.42-.188.42-.42v-.305l.363.362c.082.082.189.123.297.123s.215-.041.297-.123c.164-.164.164-.431 0-.595l-.361-.362h.305c.232 0 .42-.188.42-.42 0-.232-.188-.42-.42-.42h-1.146l-1.188-1.188h2.5l1.072 1.072c.082.083.189.123.297.123.109 0 .217-.041.299-.123.164-.164.164-.43 0-.594l-.479-.479h.943c.232 0 .42-.188.42-.42 0-.232-.187-.421-.419-.421"/>
  </g>
  <path d="M -5.108 17.306 Z" style="stroke: black; fill: none;"/>
  <path d="M 27.094 3.109 Z" style="stroke: black; fill: none;"/>
</svg>